<?xml version="1.0" encoding="utf-8"?><!DOCTYPE svg PUBLIC "-//W3C//DTD SVG 1.1//EN" "http://www.w3.org/Graphics/SVG/1.1/DTD/svg11.dtd"><svg id="apLayer_1" xmlns="http://www.w3.org/2000/svg" width="47.8" height="76.3" viewBox="0 0 47.8 76.3"><style>.apst0{fill:#499341}.apst1{fill:#259040}.apst2{fill:#82c341}.apst3{fill:#22a253}.apst4{fill:#4eaf48}.apst5{fill:#abd037}</style><path class="apst0" d="M0 48.7l22.9 27.6-.1-27.6z"/><path class="apst1" d="M47.5 76.3L23 48.9l-.2-.2H22l.9 27.6z"/><path class="apst2" d="M25 48.7s3.2-.1 7.4-2c1.6-.8 3.2-1.6 4.8-2.6 6.1-4.2 10.3-10.8 10.6-18.6H30.4c-.6 3.4-3.5 6-6.8 6h-.1-.8v17.1l2.3.1z"/><path class="apst3" d="M22.9 16.8h.3V0H0v16.8h22.9z"/><path class="apst4" d="M23.2 16.8h.7c1.6.2 6.8 1.5 6.4 8.7h17.4v-1c0-1.8-.3-6.3-2.4-10.8 0 0 0-.1-.1-.1-.2-.3-.3-.7-.5-1.1-1.2-2.4-3-4.7-5.5-6.7C37 4.1 34.3 2.6 31 1.4 29 .7 26.8.3 24.3 0H23l.2 16.8z"/><path class="apst5" d="M19.9 48.7h3.7v-17l-.3-.2c-1.8.1-23.3 0-23.3 0v17.1H19.9v.1z"/></svg>